<svg width="182" height="70" viewBox="0 0 182 70" fill="none" xmlns="http://www.w3.org/2000/svg">
<path d="M4.62317 5.88989L18.4824 14.8547V52.0932L4.62317 43.1284V5.88989Z" fill="#E67815"/>
<path d="M7.57959 22.5184L10.8599 10.0275L18.4823 14.8548L47.5065 34.2266L35.9831 40.5551L7.57959 22.5184Z" fill="#E67815"/>
<path d="M47.3073 19.3838L47.3072 34.5551L36.2198 26.9694L47.3073 19.3838Z" fill="#E67815"/>
<path d="M50.4286 18.9922L64.2878 10.0273V47.2659L37.2623 65.1955L26.1749 58.2995V43.1282L36.5694 50.0243L50.4286 41.0594V18.9922Z" fill="#EAEAEA"/>
<path d="M50.0932 13.0088L64.0858 4.77769L64.0858 8.89315L50.0932 17.9472L50.0932 13.0088Z" fill="#EAEAEA"/>
<path d="M74.9414 24.9375L79.8633 38.0156L84.7734 24.9375H88.6055V42H85.6523V36.375L85.9453 28.8516L80.9062 42H78.7852L73.7578 28.8633L74.0508 36.375V42H71.0977V24.9375H74.9414ZM95.625 42H92.7773V29.3203H95.625V42ZM92.6016 26.0273C92.6016 25.5898 92.7383 25.2266 93.0117 24.9375C93.293 24.6484 93.6914 24.5039 94.207 24.5039C94.7227 24.5039 95.1211 24.6484 95.4023 24.9375C95.6836 25.2266 95.8242 25.5898 95.8242 26.0273C95.8242 26.457 95.6836 26.8164 95.4023 27.1055C95.1211 27.3867 94.7227 27.5273 94.207 27.5273C93.6914 27.5273 93.293 27.3867 93.0117 27.1055C92.7383 26.8164 92.6016 26.457 92.6016 26.0273ZM102.129 29.3203L102.211 30.7852C103.148 29.6523 104.379 29.0859 105.902 29.0859C108.543 29.0859 109.887 30.5977 109.934 33.6211V42H107.086V33.7852C107.086 32.9805 106.91 32.3867 106.559 32.0039C106.215 31.6133 105.648 31.418 104.859 31.418C103.711 31.418 102.855 31.9375 102.293 32.9766V42H99.4453V29.3203H102.129ZM119.18 42.2344C117.375 42.2344 115.91 41.668 114.785 40.5352C113.668 39.3945 113.109 37.8789 113.109 35.9883V35.6367C113.109 34.3711 113.352 33.2422 113.836 32.25C114.328 31.25 115.016 30.4727 115.898 29.918C116.781 29.3633 117.766 29.0859 118.852 29.0859C120.578 29.0859 121.91 29.6367 122.848 30.7383C123.793 31.8398 124.266 33.3984 124.266 35.4141V36.5625H115.98C116.066 37.6094 116.414 38.4375 117.023 39.0469C117.641 39.6562 118.414 39.9609 119.344 39.9609C120.648 39.9609 121.711 39.4336 122.531 38.3789L124.066 39.8438C123.559 40.6016 122.879 41.1914 122.027 41.6133C121.184 42.0273 120.234 42.2344 119.18 42.2344ZM118.84 31.3711C118.059 31.3711 117.426 31.6445 116.941 32.1914C116.465 32.7383 116.16 33.5 116.027 34.4766H121.453V34.2656C121.391 33.3125 121.137 32.5938 120.691 32.1094C120.246 31.6172 119.629 31.3711 118.84 31.3711ZM130.207 29.3203V43.125C130.207 44.4219 129.883 45.4102 129.234 46.0898C128.594 46.7773 127.652 47.1211 126.41 47.1211C125.887 47.1211 125.383 47.0547 124.898 46.9219V44.6719C125.195 44.7422 125.531 44.7773 125.906 44.7773C126.852 44.7773 127.336 44.2617 127.359 43.2305V29.3203H130.207ZM127.113 26.0273C127.113 25.5898 127.25 25.2266 127.523 24.9375C127.805 24.6484 128.203 24.5039 128.719 24.5039C129.234 24.5039 129.633 24.6484 129.914 24.9375C130.195 25.2266 130.336 25.5898 130.336 26.0273C130.336 26.457 130.195 26.8164 129.914 27.1055C129.633 27.3867 129.234 27.5273 128.719 27.5273C128.203 27.5273 127.805 27.3867 127.523 27.1055C127.25 26.8164 127.113 26.457 127.113 26.0273ZM133.477 35.543C133.477 34.3008 133.723 33.1836 134.215 32.1914C134.707 31.1914 135.398 30.4258 136.289 29.8945C137.18 29.3555 138.203 29.0859 139.359 29.0859C141.07 29.0859 142.457 29.6367 143.52 30.7383C144.59 31.8398 145.168 33.3008 145.254 35.1211L145.266 35.7891C145.266 37.0391 145.023 38.1562 144.539 39.1406C144.062 40.125 143.375 40.8867 142.477 41.4258C141.586 41.9648 140.555 42.2344 139.383 42.2344C137.594 42.2344 136.16 41.6406 135.082 40.4531C134.012 39.2578 133.477 37.668 133.477 35.6836V35.543ZM136.324 35.7891C136.324 37.0938 136.594 38.1172 137.133 38.8594C137.672 39.5938 138.422 39.9609 139.383 39.9609C140.344 39.9609 141.09 39.5859 141.621 38.8359C142.16 38.0859 142.43 36.9883 142.43 35.543C142.43 34.2617 142.152 33.2461 141.598 32.4961C141.051 31.7461 140.305 31.3711 139.359 31.3711C138.43 31.3711 137.691 31.7422 137.145 32.4844C136.598 33.2188 136.324 34.3203 136.324 35.7891ZM159.551 35.7891C159.551 37.7578 159.109 39.3242 158.227 40.4883C157.352 41.6523 156.145 42.2344 154.605 42.2344C153.121 42.2344 151.965 41.6992 151.137 40.6289L150.996 42H148.418V24H151.266V30.5391C152.086 29.5703 153.191 29.0859 154.582 29.0859C156.129 29.0859 157.344 29.6602 158.227 30.8086C159.109 31.957 159.551 33.5625 159.551 35.625V35.7891ZM156.703 35.543C156.703 34.168 156.461 33.1367 155.977 32.4492C155.492 31.7617 154.789 31.418 153.867 31.418C152.633 31.418 151.766 31.957 151.266 33.0352V38.2617C151.773 39.3633 152.648 39.9141 153.891 39.9141C154.781 39.9141 155.469 39.582 155.953 38.918C156.438 38.2539 156.688 37.25 156.703 35.9062V35.543ZM169.805 38.5547C169.805 38.0469 169.594 37.6602 169.172 37.3945C168.758 37.1289 168.066 36.8945 167.098 36.6914C166.129 36.4883 165.32 36.2305 164.672 35.918C163.25 35.2305 162.539 34.2344 162.539 32.9297C162.539 31.8359 163 30.9219 163.922 30.1875C164.844 29.4531 166.016 29.0859 167.438 29.0859C168.953 29.0859 170.176 29.4609 171.105 30.2109C172.043 30.9609 172.512 31.9336 172.512 33.1289H169.664C169.664 32.582 169.461 32.1289 169.055 31.7695C168.648 31.4023 168.109 31.2188 167.438 31.2188C166.812 31.2188 166.301 31.3633 165.902 31.6523C165.512 31.9414 165.316 32.3281 165.316 32.8125C165.316 33.25 165.5 33.5898 165.867 33.832C166.234 34.0742 166.977 34.3203 168.094 34.5703C169.211 34.8125 170.086 35.1055 170.719 35.4492C171.359 35.7852 171.832 36.1914 172.137 36.668C172.449 37.1445 172.605 37.7227 172.605 38.4023C172.605 39.543 172.133 40.4688 171.188 41.1797C170.242 41.8828 169.004 42.2344 167.473 42.2344C166.434 42.2344 165.508 42.0469 164.695 41.6719C163.883 41.2969 163.25 40.7812 162.797 40.125C162.344 39.4688 162.117 38.7617 162.117 38.0039H164.883C164.922 38.6758 165.176 39.1953 165.645 39.5625C166.113 39.9219 166.734 40.1016 167.508 40.1016C168.258 40.1016 168.828 39.9609 169.219 39.6797C169.609 39.3906 169.805 39.0156 169.805 38.5547Z" fill="#EAEAEA"/>
</svg>
